# xmcd
#
# Track frame offsets:
#	150
#	23385
#	42507
#	63075
#	83085
#	107105
#	127824
#	148249
#	194643
#
# Disc length: 2862 seconds
#
# Revision: 9
# Processed by: cddbd v1.5.2PL0 Copyright (c) Steve Scherf et al.
# Submitted via: Jack! The Knife 20 Magnifico
#
DISCID=750b2c09
DTITLE=Revolution Renaissance - Trinity
DYEAR=2010
DGENRE=Metal
TTITLE0=Marching With The Fools
TTITLE1=Falling To Rise
TTITLE2=A Lot Like Me
TTITLE3=World Doesn't Get To Me
TTITLE4=Crossing The Rubicon
TTITLE5=Just Let It Rain
TTITLE6=Dreamchild
TTITLE7=Trinity
TTITLE8=Frozen Winter Heart
EXTD=Timo Tolkki and Santtu Lehtiniem
EXTT0=Timo Tolkki
EXTT1=Timo Tolkki
EXTT2=Timo Tolkki
EXTT3=Timo Tolkki
EXTT4=Timo Tolkki
EXTT5=Timo Tolkki
EXTT6=Timo Tolkki
EXTT7=Tolkki, Agra
EXTT8=Timo Tolkki
PLAYORDER=
